<?xml version="1.0" encoding="utf-8"?>
<!-- Generator: Adobe Illustrator 16.0.0, SVG Export Plug-In . SVG Version: 6.00 Build 0)  -->
<!DOCTYPE svg PUBLIC "-//W3C//DTD SVG 1.1//EN" "http://www.w3.org/Graphics/SVG/1.1/DTD/svg11.dtd">
<svg version="1.1"
	 id="svg3503" xmlns:dc="http://purl.org/dc/elements/1.1/" xmlns:cc="http://creativecommons.org/ns#" xmlns:rdf="http://www.w3.org/1999/02/22-rdf-syntax-ns#" xmlns:svg="http://www.w3.org/2000/svg"
	 xmlns="http://www.w3.org/2000/svg" xmlns:xlink="http://www.w3.org/1999/xlink" x="0px" y="0px" width="420.138px"
	 height="424.778px" viewBox="-552.862 846.445 420.138 424.778" enable-background="new -552.862 846.445 420.138 424.778"
	 xml:space="preserve">
<path fill="none" stroke="#FF0000" stroke-width="0.0028" stroke-miterlimit="10" d="M-147.288,1264.292
	c4.522-0.503,4.444-2.518,7.681-11.495c-1.301-1.606-2.721-3.46-3.158-4.12c-0.43-0.658-2.668-3.789-4.969-6.954
	c-2.299-3.167-6.987-9.93-10.421-15.035c-3.431-5.104-8.344-12.356-10.912-16.114c-14.614-21.374-28.966-43.475-45.357-66.923
	c-8.156-12.235-24.756-37.028-32.326-48.273c-3.757-5.584-7.057-10.161-7.329-10.169c-0.274-0.01-0.948-1.067-1.494-2.348
	c-0.55-1.282-2.345-4.119-3.987-6.309c-1.645-2.186-3.175-4.431-3.4-4.99c-0.226-0.555-1.222-2.119-2.213-3.471
	c-0.992-1.355-3.498-4.921-5.569-7.923c-2.072-3.005-4.887-6.924-6.257-8.706c-1.37-1.785-2.716-3.658-2.989-4.164
	c-0.274-0.506-1.957-2.942-3.738-5.407c-6.265-8.679-11.247-15.597-14.783-20.539c-1.964-2.746-4.88-6.68-6.479-8.74
	c-1.596-2.064-5.256-7.067-8.135-11.123c-2.876-4.055-5.596-7.684-6.042-8.064c-0.445-0.379-2.352-2.826-4.235-5.439
	c-1.885-2.611-4.682-6.41-6.219-8.441c-11.562-15.303-23.43-31.33-36.568-44.537c-12.66-12.987-13.68-14.016-13.886-14.016
	c-0.115,0-1.971-1.828-4.123-4.06c-4.776-4.949-7.955-7.971-14.128-13.419c-2.603-2.298-5.406-4.773-6.228-5.5
	c-0.822-0.726-3.961-3.336-6.975-5.8c-3.017-2.463-6.318-5.282-7.34-6.266c-1.023-0.983-1.943-1.785-2.046-1.785
	c-0.105,0-2.968-2.262-6.365-5.021c-6.517-5.249-13.489-10.182-20.622-13.737c-4.789-2.745-6.209-3.461-7.724-3.883
	c-0.958-0.268-2.752-0.937-3.985-1.488c-7.044-3.151-12.222-4.663-21.204-6.199c-7.319-1.248-23.765-1.389-26.878-0.23
	c-1.096,0.41-3.225,1.079-4.732,1.491c-5.652,1.545-18.107,8.582-21.825,12.328c-1.178,1.188-2.299,2.17-2.49,2.181
	c-0.629,0.037-5.586,7.449-6.752,10.093c-0.627,1.421-1.571,3.364-2.102,4.318c-0.53,0.954-0.981,1.979-1.004,2.281
	c-0.025,0.305-0.274,1.032-0.316,1.702c-0.42,6.717-0.571,9.343-0.591,9.945c0.763-10.5-0.056,1.57,0,0
	c-0.054,0.729-0.115,1.569-0.183,2.528c0.282,4.466-0.686,9.545,0.027,15.149c0.144,1.143,1.196,4.567,2.054,6.951
	c-0.081-0.407-0.116-0.689-0.076-0.75c0.189-0.289,1.373,3.452,1.105,3.158c-0.189-0.209-0.583-1.17-1.029-2.407
	c0.311,1.574,1.333,5.131,1.728,6.008c0.496,1.102,1.242,3.039,1.654,4.305c0.413,1.267,1.149,3.308,1.543,4.605
	c6.826,21.428,3.76,10.844,8.679,24.938c0.697,1.898,2.32,6.949,3.603,11.222c2.595,8.637,5.238,15.761,9.581,25.825
	c1.598,3.706,2.91,6.986,2.917,7.29c0.003,0.301,0.809,1.931,1.788,3.619s2.91,5.14,4.29,7.672c1.38,2.532,5.253,9.092,8.607,14.579
	c3.355,5.485,8.392,14.118,11.191,19.182c6.183,11.177,14.5,24.528,17.212,27.631c1.096,1.256,4.011,5.26,6.475,8.903
	c6.097,9,8.774,12.536,13.582,17.943c2.304,2.589,4.098,5.168,4.102,5.895c0.002,0.709,0.425,1.498,0.939,1.748
	c0.514,0.252,2.141,2.259,3.617,4.464c1.475,2.205,4.025,5.721,5.668,7.819c1.641,2.096,3.479,4.598,4.082,5.562
	c0.604,0.963,1.237,1.754,1.409,1.754c0.17,0,1.583,1.491,3.137,3.316c7.889,9.253,38.63,36.189,48.917,42.857
	c0.958,0.622,3.314,1.912,5.23,2.864c1.712,0.85,18.778,14.685,23.045,18c0.17,0.225,0.829,0.797,1.047,1.073
	c7.677,8.929,16.589,13.641,21.374,15.307c4.787,1.668,5.517-0.704,5.517-0.704s1.938-2.188,3.71-1.501
	c35.89,6.684,50.166,10.364,73.358,21.757c1.644,0.855,3.325,1.658,3.737,1.792c0.411,0.13,0.746,0.294,0.746,0.361
	c0,0.067,0.938,1.225,1.622,1.402c0.69,0.176,4.015,0.776,7.848,2.5c8.689,3.909,18.643,8.13,21.92,9.295
	c1.371,0.487,3.089,1.514,3.816,2.283c0.753,0.797,2.204,1.396,3.38,1.396c1.133,0,2.583,0.529,3.222,1.176
	c1.012,1.02,3.467,1.914,8.293,3.024c0.696,0.161,2.151,0.794,3.237,1.411c3.223,1.829,6.399,3.111,7.265,2.933
	c0.444-0.091,0.943,0.365,1.104,1.017c0.194,0.771,0.938,1.183,2.146,1.183C-154.953,1265.598-148.941,1264.886-147.288,1264.292z
	 M-231.105,1140.576c-3.8-6.7-14.508-23.503-39.01-59.096c-0.872-0.928-1.657-1.304-1.744-2.248
	c-1.535-2.002-11.195-18.187-14.275-19.942c-2.208-3.266-4.758-6.918-5.664-8.116c-0.903-1.199-2.764-3.802-4.134-5.787
	c-7.839-11.303-9.485-12.442-19.184-26.303c0-0.352-0.233-0.644-0.519-0.644c-0.646,0-5.351-5.97-10.94-13.879
	c-2.33-3.296-5.167-7.306-6.306-8.909c-4.746-6.7-12.235-20.7-19.079-26.493c-1.555-2.226-4.232-5.903-5.952-8.175
	c-2.273-3.006-3.058-4.518-2.881-5.563c0.223-1.397-1.49-2.64,0.026-3.735c1.005,0.374,1.517,1.916,2.572,2.301
	c0.354,0,0.719,0.258,0.81,0.577c0.092,0.315,1.787,2.268,3.769,4.334c9.43,9.895,8.581,9.521,21.721,26.08
	c2.362,3.33,4.176,6.35,4.032,6.714c-0.146,0.362,0.14,0.662,0.636,0.665c0.497,0.004,2.582,2.375,4.638,5.276
	c3.812,5.375,7.367,10.211,11.742,15.972c-0.001-0.001,0.636,1.345,0.634,1.341c11.14,20.606,44.708,54.786,48.189,68.648
	c0.313,0.626,3.121,1.466,3.445,3.939c-0.257,0.638,2.367,3.767,4.238,5.517c0.58,0.801,0.881,1.372,0.703,1.382
	c-0.243,0.017,0.172,0.543,0.924,1.172c0.75,0.625,1.706,2.166,2.13,3.42c0.422,1.255,0.981,2.285,1.251,2.285
	c11.275,14.886,22.049,30.854,31.624,48.338C-216.815,1155.025-224.853,1147.992-231.105,1140.576 M-338.734,999.451
	c-13.204-3.926-29.176-48.677-13.28-20.329c3.425,6.007,8.039,10.12,11.943,15.386c1.119,1.606,2.034,3.312,2.034,3.789
	C-338.047,998.824-339.011,999.141-338.734,999.451z M-368.825,963.865c6.047,8.474,9.229,15.818,17.336,28.15
	c-0.041,0.062-0.043,0.122-0.041,0.154c0.006,0.016,0.008,0.024,0.006,0.024c0.002,0,0-0.008-0.006-0.024
	c-0.066-0.226-0.939-2.283-9.544-11.762c-5.003-5.513-10.277-11.161-11.716-12.547c-4.583-4.691-12.143-10.416-15.072-18.841
	c0-0.877,1.555-2.752,3.187-0.836C-384.674,948.183-373.311,954.687-368.825,963.865z M-410.552,914.902
	c0.723-1.532,4.546,2.025,5.816,3.021c3.581,1.077,6.778,6.947,10.217,8.826c10.615,7.321,11.859,10.865,12.177,16.385
	c-0.66,1.896-0.639,1.895-3.277,0.267c-5.778-3.783-11.983-11.659-16.856-17.969c-1.187-1.396-1.763-2.585-2.089-2.466
	C-406.372,923.614-413.11,913.213-410.552,914.902z M-474.087,861.488c0.159,0.16,0.513,0.054,0.761,0.273
	c1.673,0,19.634,10.147,19.927,10.273c11.139,7.259,38.622,37.022,29.166,36.731c-1.059-0.89-4.638-3.341-5.232-3.583
	c-2.85-1.158-14.374-10.083-23.168-17.942c-7.741-6.92-21.802-16.681-27.404-19.57C-501.883,856.83-481.73,858.135-474.087,861.488z
	 M-535.733,882.875c1.687-11.686,44.495-17.094,56.282-11.756c2.057,0,16.309,9.902,22.079,15.341
	c1.699,1.603,4.862,4.376,7.028,6.165c2.166,1.789,5.059,4.2,6.43,5.362c5.062,4.286,9.625,7.629,15.695,11.502
	c7.742,4.939,8.394,5.553,15.475,14.545c3.167,4.024,8.203,10.253,11.189,13.84c6.424,7.716,12.759,17.057,12.285,18.118
	c-0.78,1.756-3.873,4.437-6.653,5.771c-1.644,0.786-3.248,1.425-3.566,1.418c-0.318-0.005-1.701-1.231-3.068-2.723
	c-1.372-1.493-3.819-4.079-5.441-5.749c-2.7-2.783-18.614-15.195-32.677-25.491c-3.152-2.304-8.334-6.114-11.52-8.465
	c-7.092-5.236-14.233-9.72-14.596-9.164c-0.147,0.229-0.575,0.02-0.949-0.458c-0.377-0.482-2.848-1.931-5.494-3.224
	c-2.646-1.294-4.811-2.589-4.811-2.88c0-0.295-0.504-0.567-1.122-0.612c-0.615-0.043-4.932-1.666-9.59-3.604
	c-0.853-0.355-89.964-9.125-16.629-7.118c-0.535-0.12-0.558-0.146,0.436,0.012c-0.146-0.004-0.291-0.01-0.436-0.012
	c1.189,0.264,4.909,1.006,5.663,1.316c7.783,3.18,16.435,4.291,23.953,9.911c0.375,0.478,0.97,0.716,1.323,0.528
	c2.14-0.667,24.73,11.599,8.734,0.781c-3.57-1.995-18.866-10.63-22.541-11.754c-4.496-0.241-7.723-0.967-12.148-2.219
	c-0.925-0.229-2.607-0.803-3.738-1.281C-511.501,888.281-534.404,896.832-535.733,882.875 M-544.108,915.819
	c0.156-0.241,0.084-0.816-0.16-1.276c-0.246-0.46-0.572-2.066-0.726-3.568c1.014-3.987-0.998-8.656,3.25-10.787
	c4.247-2.133,31.234,1.616,38.696,1.923c7.459,0.306,16.683,3.253,17.779,3.648c2.458,0.883,12.549,5.892,20.062,9.956
	c3.085,1.67,8.356,5.048,11.709,7.505c3.353,2.458,10.693,7.83,16.312,11.934c17.454,12.759,23.036,17.082,26.978,20.899
	c4.324,4.187,7.573,8.394,7.197,9.327c-0.137,0.344-1.214,1.635-2.39,2.866c-1.178,1.23-2.364,2.629-2.639,3.109
	c-1.558,2.515-5.389-3.136-8.633-5.408c-7.23-5.609-12.354-7.553-19.581-7.427c-4.867,0.083-5.562-0.093-8.593-2.188
	c-4.166-2.878-8.993-5.089-13.708-6.28c-3.332-0.841-3.944-1.288-6.479-4.738c-7.487-9.883-19.759-15.75-34.065-11.695
	c-2.795,1.792-11.633,2.821-15.33,2.261c-1.854-0.28-4.088,0.028-4.2-0.253c-0.114-0.281-3.231-0.398-6.928-0.262
	C-536.833,935.75-540.681,937.491-544.108,915.819z M-409.209,984.105c-0.201,4.789,0,0-0.397,8.065
	c-0.165,2.422-0.333,4.465-0.373,4.544c-0.04,0.079-1.076,0.33-2.306,0.555c-3.305,0.615-6.897,1.758-9.708,3.093
	c-1.369,0.649-2.491,1.158-2.491,1.129c0-0.029-0.307-0.243-0.684-0.472c-1.626-1.14-3.176-3.786-8.905-10.829
	c-0.341-0.656-1.687-2.08-2.99-3.161c-2.24-1.861-2.411-2.234-3.191-6.953c-0.452-2.745-0.846-7.826-0.871-11.292
	c-0.06-7.64,0.124-7.893,5.816-7.893c6.453,0,14.117,3.677,20.902,10.026c1.775,1.659,3.429,2.824,3.675,2.587
	C-409.788,972.608-408.989,978.165-409.209,984.105z M-528.543,965.107c-1.413-3.975-7.65-16.66-7.642-23.291
	c2.458-5.908,16.912-0.166,31.628-3.166c4.692-2.151,5.125-1.198,6.083-1.556c0.958-0.356,3.996-0.873,6.747-1.148
	c4.497-0.413,26.125,4.31,26.848,14.939c-0.946,1.427-6.304,5.386-6.738,4.975c-0.247-0.237-0.449-0.127-0.449,0.243
	c0,0.892-3.268,3.257-4.502,3.257c-0.538,0-0.978,0.269-0.978,0.597c0,0.331-0.953,0.993-2.119,1.477
	c-1.978,0.816-3.453,1.259-11.086,3.329c-1.645,0.446-6.351,0.955-10.464,1.133c-9.669,0.419-19.539,1.177-20.871,1.603
	c-0.579,0.184-1.97,0.539-3.095,0.79C-527.197,968.739-527.24,968.698-528.543,965.107z M-523.174,981.091
	c-5.226-7.441,2.859-15.096,14.236-11.361c21.543-1.147,33.61-5.406,44.047-15.556c1.821-1.769,2.302-1.889,5.862-1.466
	c4.078,0.484,9.751,3.053,13.909,6.299l2.475,1.931l-0.318,4.783c-0.216,3.244-0.046,6.836,0.525,11.157
	c0.465,3.506,0.731,6.824,0.596,7.374c-0.137,0.55-1.107,1.272-2.158,1.605c-1.05,0.33-2.133,0.705-2.407,0.827
	c-5.561,2.516-10.055,3.215-24.164,3.757c-6.441,0.246-13.952,0.958-16.693,1.578c-8.031,1.817-8.31,1.868-11.958,2.282
	c-1.918,0.217-5.465,0.763-7.884,1.213c-2.417,0.449-3.398,0.053-3.547-0.177c-0.149-0.232-1.718,0.658-2.118,1.271l0,0
	C-515.942,1010.222-520.29,991.224-523.174,981.091z M-497.603,1034.689c-1.027-1.577-1.868-3.301-1.868-3.828
	c0-0.528-0.336-1.16-0.747-1.402c-0.413-0.241-0.747-0.923-0.747-1.51c0-0.588-0.293-1.069-0.649-1.069
	c-0.355,0-1.288-1.559-2.069-3.463c-0.782-1.906-1.524-3.304-1.649-3.111c-0.322,0.288-10.706-15.041-5.465-20.989
	c0.801-0.727,31.946-5.353,40.227-5.795c9.236-0.497,18.877-2.083,25.584-4.213l4.906-1.558l2.796,2.361
	c0.821,0.7,11.479,10.702,10.603,14.384c-0.318,0.917-1.099,2.192-1.737,2.837c-1.274,1.283-18.852,10.281-23.222,11.885
	c-1.505,0.553-5.206,2.016-8.219,3.251c-3.016,1.235-10.751,4.29-17.19,6.789c-6.441,2.497-12.831,5.206-14.202,6.015
	C-495.514,1037.801-495.579,1037.795-497.603,1034.689z M-470.13,1078.289c-1.488,0-8.146-9.783-15.388-22.618
	c-2.33-4.124-4.491-7.912-4.805-8.418c-0.313-0.502-0.662-1.581-0.777-2.397c-0.113-0.813-0.474-1.393-0.801-1.287
	c-0.781,0.254-0.762-1.524,0.029-2.837c0.508-0.844,0.463-0.947-0.249-0.56c-1.542,0.834-0.93-0.172,0.996-1.64
	c2.367-1.801,6.5-3.645,18.062-8.053c18.643-7.11,31.25-12.471,39.008-16.588c1.588-0.841,3.645-1.751,4.571-2.019
	c1.542-0.445,1.759-0.267,2.531,2.083c0.465,1.413,1.122,3.084,1.461,3.717c0.336,0.634,1.262,3.051,2.053,5.372
	c0.791,2.322,1.584,4.394,1.761,4.605c0.63,0.752,3.87,10.445,5.145,15.391c1.51,5.861,3.27,16.676,2.93,18.028
	c-0.387,1.561-5.682,3.39-10.913,3.775c-2.723,0.201-9.434,0.571-14.915,0.827c-10.717,0.496-10.832,0.508-15.696,1.837
	c-6.482,1.771-10.019,3.938-12.229,7.49C-468.483,1076.809-469.731,1078.289-470.13,1078.289z M-185.471,1259.863
	c-5.906-3.433-21.945-11.276-24.739-12.206c-0.551-0.183-2.544-1.161-4.346-0.576c-0.676,0.22-35.73-18.395-65.646-28.749
	l-3.168-0.462c-17.916-4.533-23.269-5.616-38.414-6.293l-4.675,1.386c-0.615,1.349-1.057,1.497-3.267,1.085
	c-1.406-0.263-3.421-0.834-4.476-1.271c-2.765-1.38-11.709-7.525-16.393-12.843c-5.512-7.88-45.857-34.273-47.708-36.277
	c-1.506-1.331-3.637-3.181-4.733-4.107c-4.539-3.842-7.006-6.022-7.533-6.66c-0.308-0.371-1.452-1.447-2.544-2.389
	c-6.982-6.035-20.084-19.736-22.825-23.869c-0.316-0.478-2.74-3.924-5.388-7.663c-0.664-0.943-6.594-7.473-3.936-11.012
	c0.478-0.273,1.004-0.8,1.168-1.174c0.549-1.254,7.631-2.293,12.409-1.821c8.291,0.82,18.897,4.054,29.643,9.038
	c8.55,3.964,14.565,6.939,15.946,7.887c0.822,0.565,2.592,1.421,3.934,1.902c1.34,0.483,3.057,1.557,3.813,2.386
	c0.755,0.829,1.579,1.508,1.826,1.508c7.383,2.65,12.541,6.905,19.447,9.974c0.375,0,1.733,0.762,3.02,1.688
	c1.286,0.93,2.451,1.736,2.589,1.789c2.183,0.889,2.947,1.378,2.784,1.786c-0.107,0.272,0.443,0.565,1.223,0.65
	c0.781,0.088,2.56,1.05,3.955,2.139c1.396,1.087,2.714,1.812,2.931,1.604c0.479-0.454,10.878,4.641,12.276,6.014
	c0.548,0.538,1.893,1.421,2.989,1.961c1.265,0.624,4.51,2.657,8.126,5.003 M-317.182,1160.292
	c12.57,10.146,35.006,27.817,35.26,27.817l8.774,4.792c1.421,0.687,20.844,13.484,20.936,13.904
	c0.092,0.418,0.498,0.847,0.905,0.947c0.402,0.103,2.524,1.811,4.712,3.795c2.186,1.985,4.227,3.608,4.532,3.608
	s0.962,0.692,1.459,1.534c0.493,0.846,1.128,1.536,1.404,1.536c0.275,0,2.091,1.513,4.032,3.361
	c1.942,1.852,5.773,5.237,8.514,7.528c2.739,2.291,5.431,4.578,5.98,5.081c0.547,0.5,2.451,1.938,4.232,3.192
	c4.601,3.236,2.793,1.354,4.565,3.88c0.847,1.207,3.918,2.456,5.152,3.245c5.221,3.586,18.044,11.046,20.23,12.566
	c0.111,0.047,0.222,0.09,0.329,0.137c-0.019,0.026-0.027,0.053-0.04,0.079c0.067,0.065,0.058,0.087-0.029,0.063
	c-0.276,0.638,0.141,1.6,0.762,2.505 M-198.029,1245.271c-7.39-5.842-12.521-9.792-21.434-16.498
	c-10.393-7.819-18.483-14.557-19.919-16.587c-1.607-2.271-7.14-6.523-8.485-6.523c-0.571,0-0.922-0.295-0.777-0.655
	c-12.943-15.395-22.237-9.499-57.566-42.271c-0.732-0.462-1.862-1.185-3.455-2.229c-1.141-0.75-5.015-2.456-8.44-4.65
	c-10.438-6.683-10.04-6.452-32.386-18.895c-5.071-2.825-13.144-7.128-17.939-9.568c-4.796-2.438-9.503-4.966-10.462-5.62
	c-2.281-1.55-27.856-13.041-33.632-15.109c-15.584-5.577-29.697-6.105-35.246-1.319l-1.863,1.607l-2.372-2.606
	c-4.364-4.794-15.574-21.181-15.574-22.771c-0.004-1.33,3.374-6.355,4.268-6.355c0.412,0,1.244-0.464,1.851-1.031
	c0.607-0.568,2.11-1.118,3.341-1.224c1.23-0.105,2.575-0.464,2.989-0.798c1.571-1.271,9.992-2.072,28.656-2.731
	c12.257-0.431,12.511-0.411,15.942,1.42c3.815,2.037,8.24,4.826,13.114,8.276c1.732,1.224,3.256,2.226,3.386,2.226
	c0.667,0,42.358,27.95,48.273,32.36c1.096,0.817,3.787,2.64,5.979,4.048c2.192,1.407,9.093,6.395,15.337,11.084
	c6.243,4.686,11.303,9.29,11.392,9.29c0.093,0,8.594,5.368,18.668,13.087c14.826,11.357,20.088,15.2,27.097,20.75
	c0.413,0.327,5.232,3.942,10.714,8.034c3.722,2.786,6.699,5.916,12.98,9.468c13.485,9.376,8.638,6.152,15.117,11.327
	c5.744,4.732,5.536,4.555,14.254,12.254c3.286,2.906,6.592,5.765,7.341,6.354c26.992,21.645,4.928,1.948,23.377,19.137
	c1.503,2.021,1.916,3.134,1.916,5.129C-181.752,1261.728-186.874,1252.835-198.029,1245.271z M-201.353,1216.31
	c-5.707-4.28-15.631-11.719-22.056-16.528c-12.868-9.698-25.315-20.287-38.485-28.929c-6.938-5.217-16.876-12.605-22.083-16.418
	c-5.207-3.81-13.614-10.026-18.686-13.813c-5.069-3.787-10.787-8.009-12.704-9.381c-1.919-1.373-5.394-3.885-7.724-5.583
	c-5.602-4.08-13.557-9.572-22.421-15.479c-3.974-2.649-8.261-5.544-9.529-6.435c-2.765-1.942-20.174-13.685-30.58-20.625
	c-20.359-13.58-25.112-18.265-25.912-25.547c-0.652-5.959-2.742-14.93-5.361-23.017c-1.434-4.43-2.722-8.23-2.859-8.441
	c-0.477-0.737-3.873-8.851-5.221-12.478c-1.287-3.47-1.318-3.755-0.552-5.553c0.443-1.042,1.312-2.406,1.926-3.028
	c1.955-1.972,7.43-3.689,12.071-3.782c4.371-0.093,4.64,0.007,10.712,4.016c18.938,12.501,51.034,36.89,61.711,46.894
	c13.672,12.808,29.928,29.661,36.693,38.038c1.917,2.375,8.981,10.565,15.694,18.197c6.714,7.635,13.026,14.942,14.024,16.24
	c1.002,1.296,2.881,3.363,4.177,4.593c1.296,1.229,3.884,3.993,5.75,6.138c4.614,5.308,13.834,15.521,17.303,19.168
	c2.816,2.965,13.607,14.96,21.278,23.658c2.191,2.485,4.722,5.532,5.62,6.776c0.902,1.241,1.863,2.256,2.14,2.256
	c0.277,0,0.774,0.363,1.103,0.805c0.334,0.444,2.174,2.505,4.092,4.581c3.946,4.274,4.865,5.308,6.974,7.882
	c0.825,1.003,2.225,2.474,3.116,3.268c0.89,0.793,1.616,1.716,1.616,2.048c0,0.33,0.258,0.6,0.569,0.6
	c4.088,2.194,6.893,9.253,10.768,12.225c1.988,2.253,3.619,4.313,3.626,4.57c0.008,0.257,0.904,1.314,1.99,2.347
	C-175.929,1231.955-198.733,1224.633-201.353,1216.31z M-407.79,973.761c0.189-0.3,0.473-0.518,0.891-0.801
	c0.743-0.504,2.358-1.981,3.592-3.287c1.233-1.302,4.595-3.505,7.474-4.889c2.876-1.385,5.937-2.999,6.801-3.588
	c2.103-1.434,3.292-1.349,4.714,0.337c10.21,11.629,24.662,20.734,35.109,35.422c6.459,5.082,36.023,29.049,71.211,83.005
	c2.064,2.731,3.662,5.3,4.485,6.397c0.819,1.095,7.398,10.372,8.22,11.468c2.227,2.972,0.63,0.598,6.478,8.959
	c2.876,4.117,5.706,8.108,6.286,8.867c0.578,0.763,4.278,6.088,8.22,11.837c14.02,20.433,11.149,16.363,26.596,38.29
	c2.468,3.598,6.229,8.896,8.351,11.773c2.274,3.082,3.728,5.595,3.532,6.119c-0.182,0.487-0.146,0.631,0.079,0.317
	c0.453-0.633,2.281,1.901,13.97,19.338c15.305,14.333,19.787,30.77,6.255,15.103c-2.842-3.31-4.362-5.549-4.005-5.889
	c0.06-0.077-0.225,0.19-0.159,0.256c-1.022-1.14-8.547-11.008-10.329-13.018c-1.78-2.011-4.92-5.351-6.977-7.419
	c-2.056-2.071-5.194-5.363-6.975-7.315c-1.78-1.955-3.606-3.9-4.057-4.323c-0.453-0.421-2.694-2.812-4.983-5.313
	c-2.29-2.498-6.181-6.653-8.65-9.234c-5.527-5.785-11.794-12.587-21.045-22.852c-11.932-13.239-16.017-17.75-18.207-20.104
	c-3.973-4.269-25.736-29.266-33.672-38.67c-3.533-4.19-13.215-14.512-18.902-20.153c-2.384-2.365-6.465-6.416-9.069-8.999
	c-5.34-5.301-13.23-12.165-22.421-19.501c-3.425-2.735-9.778-7.805-14.119-11.268c-8.02-6.4-21.091-15.791-32.049-23.024l-6.06-4
	l-0.532-22.478C-407.747,974.784-407.772,974.008-407.79,973.761z"/>
</svg>
